# xmcd CD database file generated by Grip 3.2.0
# 
# Track frame offsets:
#       150
#       4404
#       22914
#       40249
#       59009
#       74137
#       91029
#       108519
#       124489
#       142797
#       160064
#       177574
#       194296
#       208687
#       225458
#       245009
#       269044
#       286999
#       305941
#       324448
#       341821
# 
# Disc length: 4762 seconds
# 
# Revision: 3
# Processed by: cddbd v1.5.1PL0 Copyright (c) Steve Scherf et al.
# Submitted via: Grip 3.2.0
# 
DISCID=46129815
DTITLE=Nieznany - Nieznany
DYEAR=1900
DGENRE=Blues
TTITLE0=¦cie¿ka 1
TTITLE1=¦cie¿ka 2
TTITLE2=¦cie¿ka 3
TTITLE3=¦cie¿ka 4
TTITLE4=¦cie¿ka 5
TTITLE5=¦cie¿ka 6
TTITLE6=¦cie¿ka 7
TTITLE7=¦cie¿ka 8
TTITLE8=¦cie¿ka 9
TTITLE9=¦cie¿ka 10
TTITLE10=¦cie¿ka 11
TTITLE11=¦cie¿ka 12
TTITLE12=¦cie¿ka 13
TTITLE13=¦cie¿ka 14
TTITLE14=¦cie¿ka 15
TTITLE15=¦cie¿ka 16
TTITLE16=¦cie¿ka 17
TTITLE17=¦cie¿ka 18
TTITLE18=¦cie¿ka 19
TTITLE19=¦cie¿ka 20
TTITLE20=¦cie¿ka 21
EXTD=
EXTT0=
EXTT1=
EXTT2=
EXTT3=
EXTT4=
EXTT5=
EXTT6=
EXTT7=
EXTT8=
EXTT9=
EXTT10=
EXTT11=
EXTT12=
EXTT13=
EXTT14=
EXTT15=
EXTT16=
EXTT17=
EXTT18=
EXTT19=
EXTT20=
PLAYORDER=
